<?xml version="1.0" encoding="utf-8"?>
<!-- Generator: Adobe Illustrator 21.0.2, SVG Export Plug-In . SVG Version: 6.00 Build 0)  -->
<svg version="1.1" id="Capa_1" xmlns="http://www.w3.org/2000/svg" xmlns:xlink="http://www.w3.org/1999/xlink" x="0px" y="0px"
	 viewBox="0 0 217.8 217.8" style="enable-background:new 0 0 217.8 217.8;" xml:space="preserve" width="21" height="21" fill="#d3d3d3">
<g>
	<path d="M22.9,0.9c39.1,0,78.2,0,117.3,0c17.8,17.9,35.6,35.7,53.2,53.7c1.7,1.7,2.9,4.7,2.9,7c0.2,50.7,0.1,101.5,0.1,152.2
		c0,1.7,0,3.4,0,4.9c-58.3,0-115.7,0-173.6,0C22.9,146,22.9,73.4,22.9,0.9z M40.2,201.7c46.5,0,92.8,0,139.1,0
		c0-44.3,0-88.2,0-132.6c-1.8,0-3.4,0-5,0c-12.1,0-24.2,0-36.3,0c-6.9,0-9.7-2.8-9.7-9.7c-0.1-10.5,0-21,0-31.5c0-3.2,0-6.4,0-9.6
		c-29.8,0-58.9,0-88,0C40.2,79.7,40.2,140.7,40.2,201.7z M165.2,52.2c-6.7-6.6-13.6-13.5-19.7-19.6c0,5.7,0,12.6,0,19.6
		C152.6,52.2,159.3,52.2,165.2,52.2z"/>
	<path d="M102.2,105.5c5.6,5.8,11.5,12.1,17.3,18.2c8.2-8.2,15.9-15.9,23.8-23.8c-1.4-0.2-2.9-0.3-4.7-0.6c0-3.4,0-6.9,0-10.8
		c8,0,16.2,0,24.7,0c0,8,0,16.1,0,24.7c-3.3,0-6.8,0-10.3,0c-0.2-1.6-0.3-3.1-0.5-4.7c-10.6,10.7-21.1,21.1-31.9,31.9
		c-6.6-6.9-12.6-13.2-18.8-19.6C90.2,132.5,79.2,143.7,68,155c-3-3.4-5.3-6-7.4-8.3C73.9,133.6,87.7,119.9,102.2,105.5z"/>
	<path d="M158.2,170.4c0,3.6,0,6.9,0,10.6c-32.3,0-64.5,0-97,0c0-3.4,0-6.9,0-10.6C93.6,170.4,125.8,170.4,158.2,170.4z"/>
	<path d="M118.6,39.1c0,3.6,0,6.9,0,10.5c-19.2,0-38.2,0-57.5,0c0-3.5,0-6.8,0-10.5C80.1,39.1,99.2,39.1,118.6,39.1z"/>
	<path d="M118.7,63.9c0,3.7,0,6.9,0,10.4c-19.2,0-38.3,0-57.6,0c0-3.5,0-6.8,0-10.4C80.3,63.9,99.3,63.9,118.7,63.9z"/>
</g>
</svg>
