<?xml version="1.0" encoding="utf-8"?>
<!-- Generator: Adobe Illustrator 21.0.2, SVG Export Plug-In . SVG Version: 6.00 Build 0)  -->
<svg version="1.1" id="Capa_1" xmlns="http://www.w3.org/2000/svg" xmlns:xlink="http://www.w3.org/1999/xlink" x="0px" y="0px"
	 viewBox="0 0 217.8 217.8" style="enable-background:new 0 0 217.8 217.8;" xml:space="preserve" width="21" height="21" fill="#d3d3d3">
<g>
	<path d="M181.2,6.2l-59.7,59.7l30,30l59.8-59.7c8.2-8.2,8.2-21.8,0-30C203-2.1,189.7-2.1,181.2,6.2z"/>
	<path d="M140.7,106.9l-30.2-30l-4.9-4.9c-2.3-2.3-3.2-5.4-2.3-8.4c1.4-5.3,1.9-10.9,1.4-16.7c-0.5-6.5-2.3-12.8-5.3-18.6
		c-2.8-5.6-6.8-10.7-11.6-14.9c-4.7-4.2-10.4-7.5-16.3-9.7C63.7,0.9,55.3,0.2,47,1.4c-4.2,0.7-6,6-2.8,8.9l20.5,20.5
		c8.2,8.2,8.8,22.3,0.5,30.5c-4.2,4.2-9.7,6.1-15.1,6.1c-5.4,0-10.9-2.1-15.1-6.3L14,40.6C13,39.5,11.6,39,10.3,39
		c-2.5,0-4.9,1.8-5.3,4.6c-0.4,2.3-0.5,4.6-0.5,6.8C4,75.3,24.9,98.8,50,101.1c1.6,0.2,3.2,0.2,4.7,0.2c4.4,0,8.4-0.5,12.5-1.6
		c3.2-0.7,6.3,0.2,8.6,2.5l4.7,4.7l8.4,8.4l12.5,12.5l9.1,9.1l68.1,68.1c4.2,4.2,9.7,6.3,15.1,6.3c5.4,0,10.9-2.1,15.1-6.3
		c8.2-8.2,8.2-21.8,0-30L140.7,106.9z"/>
	<path d="M53.5,185.9l-0.4-4.4c-0.2-2.3,0.7-4.4,2.3-6L76,155c0.5-0.5,1.4-0.5,1.9,0c4.2,4.2,10.9,4.2,15.1,0l6.8-6.8l-8.4-8.4
		l-6.7-6.7l-6.7-6.7l-8.4-8.4l-6.8,6.8c-4.2,4.2-4.2,10.9,0,15.1c0.5,0.5,0.5,1.4,0,1.9l-20.7,20.5c-1.6,1.6-3.7,2.5-6,2.3l-4.4-0.4
		c-1.8-0.2-3.3,0.5-4.6,1.9l-26,31.9c-1.8,2.1-1.6,5.3,0.4,7.2l5.4,5.4l5.4,5.4c1.9,1.9,4.9,2.1,7.2,0.4l31.9-26
		C52.8,189.2,53.5,187.6,53.5,185.9z"/>
</g>
</svg>
