<?xml version="1.0" encoding="utf-8"?>
<!-- Generator: Adobe Illustrator 21.0.2, SVG Export Plug-In . SVG Version: 6.00 Build 0)  -->
<svg version="1.1" id="Capa_1" xmlns="http://www.w3.org/2000/svg" xmlns:xlink="http://www.w3.org/1999/xlink" x="0px" y="0px"
	 viewBox="0 0 217.8 217.8" style="enable-background:new 0 0 217.8 217.8;" xml:space="preserve" width="21" height="21" fill="#d3d3d3">
<g>
	<g>
		<g>
			<path d="M31,187.2c20,20,46.6,31,74.9,31c28.3,0,54.9-11,74.9-31c20-20,31-46.6,31-74.9c0-3.5-2.9-6.4-6.4-6.4h-93.1V12.7
				c0-3.5-2.9-6.4-6.4-6.4c-28.3,0-54.9,11-74.9,31C11,57.4,0,84,0,112.3S11,167.2,31,187.2z"/>
		</g>
	</g>
	<g>
		<g>
			<path d="M127.7,80.9l59.8-57.6c0.7-0.7,0.7-1.8-0.1-2.5c-2.4-2-4.9-3.9-7.5-5.7c-0.6-0.4-1.5-0.4-2.1,0.2l-52.5,49.3
				c-0.3,0.3-0.5,0.8-0.5,1.2v13.9C124.9,81.1,126.6,81.9,127.7,80.9z"/>
		</g>
	</g>
	<g>
		<g>
			<path d="M137.7,92.9h12.8c0.4,0,0.8-0.2,1.1-0.4l52.9-49.4c0.6-0.5,0.7-1.4,0.3-2.1c-1.8-2.9-3.8-5.7-5.9-8.4
				c-0.6-0.8-1.8-0.9-2.5-0.2l-59.9,57.6C135.5,91.1,136.2,92.9,137.7,92.9z"/>
		</g>
	</g>
	<g>
		<g>
			<path d="M127.7,44.9l37.6-35.3c0.9-0.8,0.6-2.3-0.5-2.8C154.5,2.4,143.1,0,131.2,0c-3.5,0-6.3,2.9-6.3,6.4v37.3
				C124.9,45.1,126.6,45.9,127.7,44.9z"/>
		</g>
	</g>
	<g>
		<g>
			<path d="M174.1,92.9h37.3c3.5,0,6.4-2.9,6.4-6.4c0-10.6-1.9-20.7-5.4-30.1c-0.4-1.1-1.8-1.5-2.7-0.6L173,90
				C171.9,91.1,172.6,92.9,174.1,92.9z"/>
		</g>
	</g>
</g>
</svg>
