<?xml version="1.0" encoding="utf-8"?>
<!-- Generator: Adobe Illustrator 21.0.2, SVG Export Plug-In . SVG Version: 6.00 Build 0)  -->
<svg version="1.1" id="Capa_1" xmlns="http://www.w3.org/2000/svg" xmlns:xlink="http://www.w3.org/1999/xlink" x="0px" y="0px"
	 viewBox="0 0 217.8 217.8" style="enable-background:new 0 0 217.8 217.8;" xml:space="preserve" width="21" height="21" fill="#d3d3d3">
<g>
	<g>
		<g>
			<path d="M89.3,134.4v-29.1c15.8-10.6,25.5-28.5,25.5-47.5C114.9,26.2,89.1,0,57.4,0S0,26.2,0,57.9c0,19,9.7,36.9,25.5,47.5v80.1
				c0,1.7,0.7,3.3,1.9,4.5l25.5,25.9c1.2,1.2,2.9,1.9,4.5,1.9c1.6,0,3.3-0.6,4.5-1.9L87.5,190c2.5-2.5,2.5-6.5,0-9l-8.2-8.2l8.3-8.3
				c2.5-2.5,2.5-6.5,0-9l-8.3-8.2l8.3-8.3C88.7,137.7,89.3,136.1,89.3,134.4z M57.4,64.2c-10.6,0-19.1-8.6-19.1-19.1
				s8.6-19.1,19.1-19.1s19.1,8.6,19.1,19.1S68,64.2,57.4,64.2z"/>
		</g>
	</g>
	<g>
		<g>
			<path d="M198.7,77c-8.3,0-15.3,5.4-18,12.8h-20.3c-2.4,0-4.6,1.4-5.7,3.5l-11,22h-35.2c-3.5,0-6.4,2.9-6.4,6.4
				c0,3.5,2.9,6.4,6.4,6.4h39.1c2.4,0,4.6-1.4,5.7-3.5l11-22h16.4c2.6,7.4,9.7,12.8,18,12.8c10.6,0,19.1-8.6,19.1-19.1
				S209.2,77,198.7,77z"/>
		</g>
	</g>
	<g>
		<g>
			<path d="M198.7,128c-8.3,0-15.3,5.4-18,12.8h-72.2c-3.5,0-6.4,2.9-6.4,6.4c0,3.5,2.9,6.4,6.4,6.4h72.2c2.6,7.4,9.7,12.8,18,12.8
				c10.6,0,19.1-8.6,19.1-19.1S209.2,128,198.7,128z"/>
		</g>
	</g>
	<g>
		<g>
			<path d="M198.7,179.1c-8.3,0-15.3,5.4-18,12.8h-16.4l-11-22c-1.1-2.2-3.3-3.5-5.7-3.5h-39.1c-3.5,0-6.4,2.9-6.4,6.4
				c0,3.5,2.9,6.4,6.4,6.4h35.2l11,22c1.1,2.2,3.3,4,5.7,4h20.3c2.6,7.4,9.7,12.8,18,12.8c10.6,0,19.1-9,19.1-19.6
				C217.8,187.7,209.2,179.1,198.7,179.1z"/>
		</g>
	</g>
	<g>
		<g>
			<path d="M198.7,25.9c-8.3,0-15.3,5.4-18,12.8h-20.3c-2.1,0-4.1,1.1-5.3,2.8L131.4,77h-10.2c-3.5,0-6.4,2.9-6.4,6.4
				s2.9,6.4,6.4,6.4h13.6c2.1,0,4.1-1.1,5.3-2.8l23.6-35.4h16.9c2.6,7.4,9.7,12.8,18,12.8c10.6,0,19.1-8.6,19.1-19.1
				S209.2,25.9,198.7,25.9z"/>
		</g>
	</g>
</g>
</svg>
