<?xml version="1.0" encoding="utf-8"?>
<!-- Generator: Adobe Illustrator 21.0.2, SVG Export Plug-In . SVG Version: 6.00 Build 0)  -->
<svg version="1.1" id="Capa_1" xmlns="http://www.w3.org/2000/svg" xmlns:xlink="http://www.w3.org/1999/xlink" x="0px" y="0px"
	 viewBox="0 0 217.8 217.8" style="enable-background:new 0 0 217.8 217.8;" xml:space="preserve" width="21" height="21" fill="#d3d3d3">
<path d="M113.6,133.6l-5.9-13.2c5.7-4.2,10.5-9.3,14.3-15.2l13.5,5.1c2.6,1,5.5-0.3,6.4-2.9l5-13.1c0.5-1.2,0.4-2.6-0.1-3.8
	s-1.5-2.2-2.8-2.6l-13.5-5.1c1.1-6.9,0.8-14-0.6-20.9L143,56c1.2-0.5,2.2-1.5,2.6-2.8c0.5-1.2,0.4-2.6-0.1-3.8l-5.8-12.8
	c-1.1-2.5-4.1-3.6-6.6-2.5L120,40c-4.2-5.7-9.3-10.5-15.2-14.3l5.1-13.5c1-2.6-0.3-5.5-2.9-6.4l-13.1-5c-1.2-0.5-2.6-0.4-3.8,0.1
	c-1.2,0.5-2.2,1.5-2.6,2.8l-5.1,13.5c-6.9-1.1-14-0.8-20.9,0.6L55.5,4.7C55,3.5,54,2.5,52.7,2.1c-1.2-0.5-2.6-0.4-3.8,0.1L36.1,7.9
	c-2.5,1.1-3.6,4.1-2.5,6.6l5.9,13.2C33.9,31.9,29,37,25.2,42.9l-13.5-5.1c-1.2-0.5-2.6-0.4-3.8,0.1c-1.2,0.5-2.2,1.5-2.6,2.8
	l-5,13.1c-1,2.6,0.3,5.5,2.9,6.4l13.5,5.1c-1.1,6.9-0.8,14,0.6,20.9L4.2,92.2C3,92.7,2.1,93.7,1.6,95c-0.5,1.2-0.4,2.6,0.1,3.8
	l5.8,12.8c0.5,1.2,1.5,2.2,2.8,2.6c1.2,0.5,2.6,0.4,3.8-0.1l13.2-5.9c4.2,5.7,9.3,10.5,15.2,14.3L37.3,136c-1,2.6,0.3,5.5,2.9,6.4
	l13.1,5c0.6,0.2,1.2,0.3,1.8,0.3c0.7,0,1.4-0.1,2.1-0.4c1.2-0.5,2.2-1.5,2.6-2.8l5.1-13.5c6.9,1.1,14,0.8,20.9-0.6l5.9,13.2
	c0.5,1.2,1.5,2.2,2.8,2.6c1.2,0.5,2.6,0.4,3.8-0.1l12.8-5.8C113.6,139.1,114.7,136.2,113.6,133.6z M105.3,86.1
	c-5,13.1-17.7,21.9-31.7,21.9c-4.1,0-8.1-0.7-12-2.2c-8.5-3.2-15.2-9.5-18.9-17.8c-3.7-8.3-4-17.5-0.8-25.9
	c5-13.1,17.7-21.9,31.7-21.9c4.1,0,8.1,0.7,12,2.2c8.5,3.2,15.2,9.5,18.9,17.8C108.2,68.4,108.5,77.6,105.3,86.1z M216.5,154.4
	c-0.9-1-2.1-1.6-3.5-1.6l-9.4-0.4c-0.9-4.4-2.4-8.7-4.6-12.7l6.9-6.4c2-1.9,2.2-5,0.3-7.1l-6.9-7.5c-0.9-1-2.1-1.6-3.5-1.6
	c-1.3,0-2.6,0.4-3.6,1.3l-6.9,6.4c-3.8-2.5-7.9-4.5-12.3-5.7l0.4-9.4c0.1-2.8-2-5.1-4.8-5.2l-10.2-0.4c-2.7-0.1-5.1,2-5.2,4.8
	l-0.4,9.4c-4.4,0.9-8.7,2.4-12.7,4.6l-6.4-6.9c-0.9-1-2.1-1.6-3.5-1.6c-1.3-0.1-2.6,0.4-3.6,1.3l-7.5,6.9c-2,1.9-2.2,5-0.3,7.1
	l6.4,6.9c-2.5,3.8-4.5,7.9-5.7,12.3l-9.4-0.4c-2.7-0.1-5.1,2-5.2,4.8l-0.4,10.2c-0.1,1.3,0.4,2.6,1.3,3.6c0.9,1,2.1,1.6,3.5,1.6
	l9.4,0.4c0.9,4.4,2.4,8.7,4.6,12.7l-6.9,6.4c-1,0.9-1.6,2.1-1.6,3.5c-0.1,1.3,0.4,2.6,1.3,3.6l6.9,7.5c0.9,1,2.1,1.6,3.5,1.6
	c1.3,0.1,2.6-0.4,3.6-1.3l6.9-6.4c3.8,2.5,7.9,4.5,12.3,5.7l-0.4,9.4c-0.1,2.8,2,5.1,4.8,5.2l10.2,0.4c0.1,0,0.1,0,0.2,0
	c1.3,0,2.5-0.5,3.4-1.3c1-0.9,1.6-2.1,1.6-3.5l0.4-9.4c4.4-0.9,8.7-2.4,12.7-4.6l6.4,6.9c0.9,1,2.1,1.6,3.5,1.6
	c1.3,0.1,2.6-0.4,3.6-1.3l7.5-6.9c2-1.9,2.2-5,0.3-7.1l-6.4-6.9c2.5-3.8,4.5-7.9,5.7-12.3l9.4,0.4c2.8,0.1,5.1-2,5.2-4.8l0.4-10.2
	C217.8,156.7,217.4,155.4,216.5,154.4z M160.2,184c-12.8-0.6-22.8-11.4-22.3-24.3c0.5-12.5,10.8-22.3,23.3-22.3c0.3,0,0.7,0,1,0
	c12.8,0.6,22.8,11.4,22.3,24.3C183.9,174.5,173.1,184.5,160.2,184z"/>
</svg>
